<svg width="163" height="29" viewBox="0 0 163 29" fill="none" xmlns="http://www.w3.org/2000/svg">
<path d="M5.71888 6.93945V11.6866H14.6282V16.5585H5.71888V21.5802H16.1011V26.4378H0.527771V2.13525H16.1011V6.94658L5.71888 6.93945Z" fill="black"/>
<path d="M41.5792 2.03467V26.4335H41.3407L26.0059 12.8192V26.437H20.8223V2.0703H21.0798L36.3805 15.6525V2.03467H41.5792Z" fill="black"/>
<path d="M51.705 6.9066V11.807H60.6106V16.6789H51.705V26.437H46.5139V2.03467H62.0948V6.9066H51.705Z" fill="black"/>
<path d="M96.3382 14.2166C96.3382 7.56988 102.287 1.94238 109.337 1.94238C112.597 1.98515 115.486 3.19692 118.11 5.5812L115.206 9.30551C113.498 7.73024 111.45 6.76441 109.291 6.76441C105.27 6.76441 101.435 10.1252 101.435 14.2487C101.435 18.4435 105.407 21.6866 109.276 21.6866C111.571 21.6866 113.559 20.532 115.221 18.9959L118.11 22.8271C115.906 24.8871 113.218 26.4374 109.428 26.4374C102.23 26.4374 96.3382 20.8384 96.3382 14.2166Z" fill="black"/>
<path d="M82.7619 6.68572C81.5526 5.95847 80.2177 5.43542 78.8172 5.14014C77.1543 5.48963 75.5863 6.15932 74.2119 7.10701C72.8376 8.0547 71.6867 9.25988 70.8317 10.6466C69.9767 12.0334 69.4362 13.5717 69.2441 15.1647C69.0521 16.7576 69.2127 18.3708 69.7158 19.9025C70.8573 21.0913 72.2477 22.0453 73.7996 22.7047C75.3516 23.3641 77.0316 23.7145 78.7343 23.7342C80.437 23.7538 82.1257 23.4421 83.6943 22.8187C85.2629 22.1952 86.6777 21.2735 87.8498 20.1113C88.707 17.6597 88.6722 15.0092 87.751 12.5782C86.8297 10.1472 85.0744 8.07403 82.7619 6.68572Z" fill="black"/>
<path d="M88.1475 6.68498C86.779 5.86071 85.2504 5.29972 83.6502 5.03444C82.0499 4.76916 80.4096 4.80484 78.8241 5.13941C80.5055 5.49427 82.0894 6.1763 83.4739 7.14164C84.8584 8.10698 86.0128 9.33426 86.8629 10.7445C87.713 12.1548 88.2401 13.7169 88.4101 15.3303C88.5801 16.9437 88.3893 18.5728 87.8501 20.1127C89.3555 18.6173 90.4112 16.7721 90.9089 14.7664C91.4066 12.7606 91.3285 10.6664 90.6826 8.69841C89.9379 7.92286 89.0851 7.24558 88.1475 6.68498V6.68498Z" fill="#0503E3"/>
<path d="M86.5222 22.7358C87.0802 21.9205 87.5277 21.0427 87.8541 20.1229C86.6819 21.2851 85.2672 22.2068 83.6986 22.8302C82.1299 23.4537 80.4413 23.7654 78.7386 23.7457C77.0359 23.7261 75.3558 23.3756 73.8039 22.7163C72.252 22.0569 70.8616 21.1029 69.72 19.9141C70.3625 21.8698 71.5425 23.6311 73.1407 25.02C74.7388 26.4089 76.6985 27.3761 78.8215 27.8236C82.0034 27.1546 84.7731 25.3247 86.5222 22.7358V22.7358Z" fill="#E30505"/>
<path d="M69.7088 19.9015C69.2057 18.3698 69.0451 16.7567 69.2372 15.1637C69.4292 13.5707 69.9698 12.0324 70.8247 10.6457C71.6797 9.2589 72.8306 8.05372 74.205 7.10603C75.5793 6.15833 77.1473 5.48865 78.8103 5.13915C76.725 4.70053 74.5546 4.77782 72.5105 5.36349C70.4664 5.94916 68.6186 7.02322 67.1471 8.48094C66.4679 10.4283 66.3471 12.5098 66.7969 14.5151C67.2467 16.5204 68.2512 18.3785 69.7088 19.9015Z" fill="#21D95F"/>
<path d="M90.6756 8.69873C91.3216 10.6667 91.3997 12.7609 90.9019 14.7667C90.4042 16.7725 89.3485 18.6176 87.8431 20.113C87.1724 22.022 85.9871 23.7349 84.4028 25.0842C82.8185 26.4335 80.8894 27.3733 78.8038 27.8116C81.3595 28.3491 84.0307 28.1083 86.4315 27.1238C88.8322 26.1394 90.8381 24.4624 92.1595 22.335C93.4809 20.2077 94.0492 17.7402 93.7825 15.2891C93.5158 12.8379 92.4278 10.53 90.6756 8.69873V8.69873Z" fill="#DD03E3"/>
<path d="M78.8169 5.13937C80.9507 4.69073 83.1728 4.78303 85.2562 5.40685C87.3396 6.03066 89.2097 7.16363 90.6754 8.69002C89.9022 6.33578 88.3537 4.27372 86.2534 2.80166C84.1532 1.32961 81.61 0.523762 78.9912 0.500517C76.3724 0.477272 73.8135 1.23784 71.6842 2.67235C69.5548 4.10686 67.9652 6.14106 67.1449 8.48115C68.6172 7.02206 70.4666 5.94716 72.5123 5.36144C74.5581 4.77572 76.7303 4.69921 78.8169 5.13937V5.13937Z" fill="#03E0DA"/>
<path d="M69.7093 19.9022C68.2535 18.379 67.2507 16.5214 66.8021 14.5169C66.3535 12.5124 66.4749 10.432 67.1542 8.48584C65.3347 10.2918 64.1798 12.5999 63.8596 15.07C63.5394 17.5402 64.0708 20.0418 65.3756 22.2063C66.6804 24.3708 68.6896 26.0839 71.1071 27.093C73.5247 28.1022 76.2228 28.3542 78.804 27.8118C76.6811 27.3642 74.7214 26.397 73.1232 25.0081C71.525 23.6193 70.345 21.8579 69.7026 19.9022H69.7093Z" fill="#F0E903"/>
<path d="M121.816 17.1321V2.16357H126.924V17.1321C126.924 18.2891 127.412 19.3987 128.281 20.2168C129.15 21.0348 130.329 21.4944 131.558 21.4944C132.787 21.4944 133.966 21.0348 134.835 20.2168C135.705 19.3987 136.193 18.2891 136.193 17.1321V2.16357H141.301V17.1321C141.301 22.5137 136.931 26.4376 131.558 26.4376C126.185 26.4376 121.816 22.5137 121.816 17.1321Z" fill="black"/>
<path d="M144.278 21.9112L148.295 19.2526C149.397 20.9169 150.991 21.676 153.15 21.676C155.505 21.676 157.087 20.7744 157.087 19.5163C157.087 17.7949 154.096 16.437 151.472 15.211C148.666 13.8959 145.581 12.4526 145.581 8.69972C145.581 4.62613 149.242 1.92822 153.831 1.92822C157.239 1.92822 160.067 3.254 161.199 6.10159L157.511 8.55002C157.175 7.9342 156.659 7.42155 156.024 7.07241C155.389 6.72326 154.661 6.55214 153.926 6.57914C152.033 6.57914 150.654 7.602 150.654 8.81374C150.654 10.2144 152.547 10.6955 155.418 11.9643C159.556 13.8068 162.161 15.7919 162.161 19.4129C162.161 23.6896 158.439 26.4339 153.074 26.4339C148.977 26.4375 145.952 24.8301 144.278 21.9112Z" fill="black"/>
</svg>
